<?xml version="1.0" encoding="utf-8"?>
<svg version="1.1" id="Layer_1" xmlns="http://www.w3.org/2000/svg" x="0px" y="0px" viewBox="30.298 56.848 221.703 117.239" style="enable-background:new 0 0 254.5 225;" xmlns:bx="https://boxy-svg.com" width="221.703px" height="117.239px"><defs><linearGradient id="linearGradient5562"><stop style="stop-color:#699ad7;stop-opacity:1" offset="0" id="stop5564"/><stop id="stop5566" offset="0.2435" style="stop-color:#7eb1dd;stop-opacity:1"/><stop style="stop-color:#7ebae4;stop-opacity:1" offset="1" id="stop5568"/></linearGradient><linearGradient id="gradient-0"><stop style="stop-color: rgb(126, 186, 228);" offset="1"/></linearGradient><linearGradient id="linearGradient5053"><stop style="stop-color:#415e9a;stop-opacity:1" offset="0" id="stop5055"/><stop id="stop5057" offset="0.2317" style="stop-color:#4a6baf;stop-opacity:1"/><stop style="stop-color:#5277c3;stop-opacity:1" offset="1" id="stop5059"/></linearGradient><linearGradient id="linearGradient4328" gradientUnits="userSpaceOnUse" gradientTransform="translate(70.650339,-1055.1511)" x1="200.59668" y1="351.41116" x2="290.08701" y2="506.18814" href="#linearGradient5562"/><linearGradient id="linearGradient4330" gradientUnits="userSpaceOnUse" gradientTransform="translate(864.69589,-1491.3405)" x1="-584.19934" y1="782.33563" x2="-496.29703" y2="937.71399" href="#linearGradient5053"/><bx:export><bx:file format="svg" path="no.svg" normalization="{&quot;convertTextsToPaths&quot;:true}"/><bx:file format="png" path="no.png"><bx:variant scale="2" suffix="@2x"/><bx:variant scale="4" suffix="@4x"/></bx:file></bx:export></defs><style type="text/css">
	.st0{fill:#2DBCAF;}
	.st1{fill:#5DC9E1;}
	.st2{fill:#FDDD00;}
	.st3{fill:#CE3262;}
	.st4{fill:#00ACD7;}
	.st5{fill:#FFFFFF;}
</style><g transform="matrix(1, 0, 0, 1, 22, 0)"><path class="st4" d="M 38.7 101.1 C 38.3 101.1 38.2 100.9 38.4 100.6 L 40.5 97.9 C 40.7 97.6 41.2 97.4 41.6 97.4 L 77.3 97.4 C 77.7 97.4 77.8 97.7 77.6 98 L 76.9 100.6 C 76.7 100.9 76.2 101.2 75.9 101.2 L 38.7 101.1 Z" style="fill: url(&quot;#gradient-0&quot;);"><title>1</title></path><path class="st4" d="M 28 110.3 C 27.6 110.3 27.5 110.1 27.7 109.8 L 29.8 107.1 C 30 106.8 30.5 106.6 30.9 106.6 L 75.6 106.6 C 76 106.6 76.1 106.9 75.9 107.2 L 75.2 109.8 C 75 110.1 74.5 110.4 74.2 110.4 L 28 110.3 Z" style="fill: url(&quot;#gradient-0&quot;);"><title>2</title></path><path class="st4" d="M 51.4 119.5 C 51 119.5 50.9 119.3 51.1 119 L 53.2 116.3 C 53.4 116 53.9 115.8 54.3 115.8 L 74 115.8 C 74.4 115.8 74.5 116.1 74.3 116.4 L 73.6 119 C 73.4 119.3 72.9 119.6 72.6 119.6 L 51.4 119.5 Z" style="fill: url(&quot;#gradient-0&quot;);"><title>1</title></path></g><g id="layer3" style="display:inline;opacity:1" transform="matrix(0.174092, 0, 0, 0.174092, 119.39064, 235.468658)"><g id="g2" transform="matrix(0.99994059,0,0,0.99994059,-0.06321798,33.188377)" style="stroke-width:1.00006"><path id="path3336-6" d="m 309.54892,-710.38827 122.19683,211.67512 -56.15706,0.5268 -32.6236,-56.8692 -32.85645,56.5653 -27.90237,-0.011 -14.29086,-24.6896 46.81047,-80.4901 -33.22946,-57.8257 z" style="opacity:1;fill:url(#linearGradient4328);fill-opacity:1;fill-rule:evenodd;stroke:none;stroke-width:3.00018;stroke-linecap:butt;stroke-linejoin:round;stroke-miterlimit:4;stroke-dasharray:none;stroke-opacity:1"/><path id="use3439-6" d="m 309.54892,-710.38827 122.19683,211.67512 -56.15706,0.5268 -32.6236,-56.8692 -32.85645,56.5653 -27.90237,-0.011 -14.29086,-24.6896 46.81047,-80.4901 -33.22946,-57.8257 z" style="opacity:1;fill:url(#linearGradient4328);fill-opacity:1;fill-rule:evenodd;stroke:none;stroke-width:3.00018;stroke-linecap:butt;stroke-linejoin:round;stroke-miterlimit:4;stroke-dasharray:none;stroke-opacity:1" transform="matrix(0.49999999999999994, 0.8660254037844387, -0.8660254037844387, 0.49999999999999994, -416.3341552621488, -710.462553050314)"/><path id="use3445-0" d="m 309.54892,-710.38827 122.19683,211.67512 -56.15706,0.5268 -32.6236,-56.8692 -32.85645,56.5653 -27.90237,-0.011 -14.29086,-24.6896 46.81047,-80.4901 -33.22946,-57.8257 z" style="opacity:1;fill:url(#linearGradient4328);fill-opacity:1;fill-rule:evenodd;stroke:none;stroke-width:3.00018;stroke-linecap:butt;stroke-linejoin:round;stroke-miterlimit:4;stroke-dasharray:none;stroke-opacity:1" transform="matrix(0.49999999999999994, -0.8660254037844387, 0.8660254037844387, 0.49999999999999994, 823.4703815651761, -5.107729155672814)"/><path id="use3449-5" d="m 309.54892,-710.38827 122.19683,211.67512 -56.15706,0.5268 -32.6236,-56.8692 -32.85645,56.5653 -27.90237,-0.011 -14.29086,-24.6896 46.81047,-80.4901 -33.22946,-57.8257 z" style="opacity:1;fill:url(#linearGradient4328);fill-opacity:1;fill-rule:evenodd;stroke:none;stroke-width:3.00018;stroke-linecap:butt;stroke-linejoin:round;stroke-miterlimit:4;stroke-dasharray:none;stroke-opacity:1" transform="matrix(-1, 0, 0, -1, 814.8373413085938, -1431.512939453125)"/><path style="color:#000000;clip-rule:nonzero;display:inline;overflow:visible;visibility:visible;opacity:1;isolation:auto;mix-blend-mode:normal;color-interpolation:sRGB;color-interpolation-filters:linearRGB;solid-color:#000000;solid-opacity:1;fill:url(#linearGradient4330);fill-opacity:1;fill-rule:evenodd;stroke:none;stroke-width:3.00018;stroke-linecap:butt;stroke-linejoin:round;stroke-miterlimit:4;stroke-dasharray:none;stroke-dashoffset:0;stroke-opacity:1;color-rendering:auto;image-rendering:auto;shape-rendering:auto;text-rendering:auto;enable-background:accumulate" d="m 309.54892,-710.38827 122.19683,211.67512 -56.15706,0.5268 -32.6236,-56.8692 -32.85645,56.5653 -27.90237,-0.011 -14.29086,-24.6896 46.81047,-80.4901 -33.22946,-57.8256 z" id="path4260-0"/><path style="color:#000000;clip-rule:nonzero;display:inline;overflow:visible;visibility:visible;opacity:1;isolation:auto;mix-blend-mode:normal;color-interpolation:sRGB;color-interpolation-filters:linearRGB;solid-color:#000000;solid-opacity:1;fill:url(#linearGradient4330);fill-opacity:1;fill-rule:evenodd;stroke:none;stroke-width:3.00018;stroke-linecap:butt;stroke-linejoin:round;stroke-miterlimit:4;stroke-dasharray:none;stroke-dashoffset:0;stroke-opacity:1;color-rendering:auto;image-rendering:auto;shape-rendering:auto;text-rendering:auto;enable-background:accumulate" d="m 309.54892,-710.38827 122.19683,211.67512 -56.15706,0.5268 -32.6236,-56.8692 -32.85645,56.5653 -27.90237,-0.011 -14.29086,-24.6896 46.81047,-80.4901 -33.22946,-57.8256 z" id="use4354-5" transform="matrix(-0.49999999999999994, 0.8660254037844387, -0.8660254037844387, -0.49999999999999994, -9.13779316103637, -1426.891406916489)"/><path style="color:#000000;clip-rule:nonzero;display:inline;overflow:visible;visibility:visible;opacity:1;isolation:auto;mix-blend-mode:normal;color-interpolation:sRGB;color-interpolation-filters:linearRGB;solid-color:#000000;solid-opacity:1;fill:url(#linearGradient4330);fill-opacity:1;fill-rule:evenodd;stroke:none;stroke-width:3.00018;stroke-linecap:butt;stroke-linejoin:round;stroke-miterlimit:4;stroke-dasharray:none;stroke-dashoffset:0;stroke-opacity:1;color-rendering:auto;image-rendering:auto;shape-rendering:auto;text-rendering:auto;enable-background:accumulate" d="m 309.54892,-710.38827 122.19683,211.67512 -56.15706,0.5268 -32.6236,-56.8692 -32.85645,56.5653 -27.90237,-0.011 -14.29086,-24.6896 46.81047,-80.4901 -33.22946,-57.8256 z" id="use4362-2" transform="matrix(-0.49999999999999994, -0.8660254037844387, 0.8660254037844387, -0.49999999999999994, 1230.8939065086165, -721.0829398974427)"/></g></g><path d="M 166.68 82.9 L 154.16 154.47 L 136.16 154.47 L 123.64 115.31 L 116.88 154.47 L 98.89 154.47 L 111.51 82.9 L 130 82.9 L 142.33 119.48 L 148.79 82.9 Z" style="fill: url(&quot;#linearGradient5053&quot;); text-wrap-mode: nowrap;"/></svg>